<svg width="132mm" height="132mm" version="1.1" viewBox="0 0 132 132" xmlns="http://www.w3.org/2000/svg"><rect fill="white" x="0" y="0" width="100%" height="100%" /><path d="M0,0H4V4H0zM4,0H8V4H4zM8,0H12V4H8zM12,0H16V4H12zM16,0H20V4H16zM20,0H24V4H20zM24,0H28V4H24zM32,0H36V4H32zM40,0H44V4H40zM44,0H48V4H44zM56,0H60V4H56zM60,0H64V4H60zM64,0H68V4H64zM68,0H72V4H68zM72,0H76V4H72zM84,0H88V4H84zM88,0H92V4H88zM92,0H96V4H92zM104,0H108V4H104zM108,0H112V4H108zM112,0H116V4H112zM116,0H120V4H116zM120,0H124V4H120zM124,0H128V4H124zM128,0H132V4H128zM0,4H4V8H0zM24,4H28V8H24zM36,4H40V8H36zM40,4H44V8H40zM48,4H52V8H48zM68,4H72V8H68zM76,4H80V8H76zM80,4H84V8H80zM84,4H88V8H84zM88,4H92V8H88zM96,4H100V8H96zM104,4H108V8H104zM128,4H132V8H128zM0,8H4V12H0zM8,8H12V12H8zM12,8H16V12H12zM16,8H20V12H16zM24,8H28V12H24zM48,8H52V12H48zM52,8H56V12H52zM60,8H64V12H60zM76,8H80V12H76zM88,8H92V12H88zM92,8H96V12H92zM104,8H108V12H104zM112,8H116V12H112zM116,8H120V12H116zM120,8H124V12H120zM128,8H132V12H128zM0,12H4V16H0zM8,12H12V16H8zM12,12H16V16H12zM16,12H20V16H16zM24,12H28V16H24zM32,12H36V16H32zM36,12H40V16H36zM40,12H44V16H40zM56,12H60V16H56zM68,12H72V16H68zM72,12H76V16H72zM80,12H84V16H80zM84,12H88V16H84zM92,12H96V16H92zM104,12H108V16H104zM112,12H116V16H112zM116,12H120V16H116zM120,12H124V16H120zM128,12H132V16H128zM0,16H4V20H0zM8,16H12V20H8zM12,16H16V20H12zM16,16H20V20H16zM24,16H28V20H24zM32,16H36V20H32zM36,16H40V20H36zM44,16H48V20H44zM52,16H56V20H52zM56,16H60V20H56zM68,16H72V20H68zM72,16H76V20H72zM76,16H80V20H76zM80,16H84V20H80zM96,16H100V20H96zM104,16H108V20H104zM112,16H116V20H112zM116,16H120V20H116zM120,16H124V20H120zM128,16H132V20H128zM0,20H4V24H0zM24,20H28V24H24zM32,20H36V24H32zM44,20H48V24H44zM52,20H56V24H52zM64,20H68V24H64zM68,20H72V24H68zM76,20H80V24H76zM84,20H88V24H84zM96,20H100V24H96zM104,20H108V24H104zM128,20H132V24H128zM0,24H4V28H0zM4,24H8V28H4zM8,24H12V28H8zM12,24H16V28H12zM16,24H20V28H16zM20,24H24V28H20zM24,24H28V28H24zM32,24H36V28H32zM40,24H44V28H40zM48,24H52V28H48zM56,24H60V28H56zM64,24H68V28H64zM72,24H76V28H72zM80,24H84V28H80zM88,24H92V28H88zM96,24H100V28H96zM104,24H108V28H104zM108,24H112V28H108zM112,24H116V28H112zM116,24H120V28H116zM120,24H124V28H120zM124,24H128V28H124zM128,24H132V28H128zM32,28H36V32H32zM36,28H40V32H36zM40,28H44V32H40zM48,28H52V32H48zM56,28H60V32H56zM60,28H64V32H60zM64,28H68V32H64zM68,28H72V32H68zM72,28H76V32H72zM84,28H88V32H84zM88,28H92V32H88zM0,32H4V36H0zM16,32H20V36H16zM24,32H28V36H24zM28,32H32V36H28zM32,32H36V36H32zM36,32H40V36H36zM40,32H44V36H40zM44,32H48V36H44zM56,32H60V36H56zM68,32H72V36H68zM76,32H80V36H76zM84,32H88V36H84zM88,32H92V36H88zM100,32H104V36H100zM104,32H108V36H104zM108,32H112V36H108zM112,32H116V36H112zM116,32H120V36H116zM128,32H132V36H128zM0,36H4V40H0zM12,36H16V40H12zM28,36H32V40H28zM40,36H44V40H40zM44,36H48V40H44zM48,36H52V40H48zM52,36H56V40H52zM56,36H60V40H56zM60,36H64V40H60zM64,36H68V40H64zM92,36H96V40H92zM100,36H104V40H100zM116,36H120V40H116zM120,36H124V40H120zM124,36H128V40H124zM0,40H4V44H0zM8,40H12V44H8zM12,40H16V44H12zM16,40H20V44H16zM24,40H28V44H24zM28,40H32V44H28zM36,40H40V44H36zM44,40H48V44H44zM48,40H52V44H48zM60,40H64V44H60zM64,40H68V44H64zM68,40H72V44H68zM80,40H84V44H80zM84,40H88V44H84zM88,40H92V44H88zM92,40H96V44H92zM116,40H120V44H116zM4,44H8V48H4zM8,44H12V48H8zM20,44H24V48H20zM28,44H32V48H28zM32,44H36V48H32zM56,44H60V48H56zM64,44H68V48H64zM68,44H72V48H68zM72,44H76V48H72zM80,44H84V48H80zM84,44H88V48H84zM96,44H100V48H96zM100,44H104V48H100zM104,44H108V48H104zM124,44H128V48H124zM128,44H132V48H128zM0,48H4V52H0zM12,48H16V52H12zM16,48H20V52H16zM24,48H28V52H24zM32,48H36V52H32zM40,48H44V52H40zM44,48H48V52H44zM52,48H56V52H52zM56,48H60V52H56zM72,48H76V52H72zM76,48H80V52H76zM80,48H84V52H80zM92,48H96V52H92zM104,48H108V52H104zM108,48H112V52H108zM112,48H116V52H112zM116,48H120V52H116zM4,52H8V56H4zM8,52H12V56H8zM20,52H24V56H20zM40,52H44V56H40zM44,52H48V56H44zM52,52H56V56H52zM64,52H68V56H64zM76,52H80V56H76zM88,52H92V56H88zM92,52H96V56H92zM108,52H112V56H108zM116,52H120V56H116zM0,56H4V60H0zM24,56H28V60H24zM36,56H40V60H36zM40,56H44V60H40zM48,56H52V60H48zM52,56H56V60H52zM64,56H68V60H64zM68,56H72V60H68zM72,56H76V60H72zM76,56H80V60H76zM84,56H88V60H84zM88,56H92V60H88zM92,56H96V60H92zM96,56H100V60H96zM100,56H104V60H100zM104,56H108V60H104zM116,56H120V60H116zM120,56H124V60H120zM124,56H128V60H124zM0,60H4V64H0zM8,60H12V64H8zM12,60H16V64H12zM20,60H24V64H20zM28,60H32V64H28zM32,60H36V64H32zM36,60H40V64H36zM44,60H48V64H44zM52,60H56V64H52zM56,60H60V64H56zM68,60H72V64H68zM72,60H76V64H72zM76,60H80V64H76zM80,60H84V64H80zM84,60H88V64H84zM92,60H96V64H92zM100,60H104V64H100zM104,60H108V64H104zM20,64H24V68H20zM24,64H28V68H24zM28,64H32V68H28zM40,64H44V68H40zM56,64H60V68H56zM60,64H64V68H60zM68,64H72V68H68zM80,64H84V68H80zM84,64H88V68H84zM88,64H92V68H88zM96,64H100V68H96zM104,64H108V68H104zM112,64H116V68H112zM116,64H120V68H116zM124,64H128V68H124zM8,68H12V72H8zM16,68H20V72H16zM40,68H44V72H40zM48,68H52V72H48zM52,68H56V72H52zM60,68H64V72H60zM64,68H68V72H64zM68,68H72V72H68zM72,68H76V72H72zM84,68H88V72H84zM92,68H96V72H92zM96,68H100V72H96zM116,68H120V72H116zM120,68H124V72H120zM124,68H128V72H124zM0,72H4V76H0zM8,72H12V76H8zM16,72H20V76H16zM24,72H28V76H24zM32,72H36V76H32zM36,72H40V76H36zM40,72H44V76H40zM60,72H64V76H60zM72,72H76V76H72zM80,72H84V76H80zM92,72H96V76H92zM96,72H100V76H96zM108,72H112V76H108zM116,72H120V76H116zM124,72H128V76H124zM4,76H8V80H4zM20,76H24V80H20zM28,76H32V80H28zM32,76H36V80H32zM48,76H52V80H48zM52,76H56V80H52zM56,76H60V80H56zM60,76H64V80H60zM64,76H68V80H64zM76,76H80V80H76zM88,76H92V80H88zM96,76H100V80H96zM104,76H108V80H104zM108,76H112V80H108zM124,76H128V80H124zM128,76H132V80H128zM0,80H4V84H0zM8,80H12V84H8zM12,80H16V84H12zM16,80H20V84H16zM20,80H24V84H20zM24,80H28V84H24zM36,80H40V84H36zM48,80H52V84H48zM56,80H60V84H56zM64,80H68V84H64zM76,80H80V84H76zM88,80H92V84H88zM104,80H108V84H104zM108,80H112V84H108zM112,80H116V84H112zM116,80H120V84H116zM124,80H128V84H124zM128,80H132V84H128zM0,84H4V88H0zM4,84H8V88H4zM8,84H12V88H8zM28,84H32V88H28zM32,84H36V88H32zM36,84H40V88H36zM40,84H44V88H40zM44,84H48V88H44zM48,84H52V88H48zM68,84H72V88H68zM72,84H76V88H72zM76,84H80V88H76zM80,84H84V88H80zM92,84H96V88H92zM100,84H104V88H100zM116,84H120V88H116zM120,84H124V88H120zM124,84H128V88H124zM8,88H12V92H8zM16,88H20V92H16zM24,88H28V92H24zM36,88H40V92H36zM44,88H48V92H44zM60,88H64V92H60zM72,88H76V92H72zM80,88H84V92H80zM88,88H92V92H88zM92,88H96V92H92zM96,88H100V92H96zM100,88H104V92H100zM124,88H128V92H124zM8,92H12V96H8zM28,92H32V96H28zM32,92H36V96H32zM40,92H44V96H40zM44,92H48V96H44zM52,92H56V96H52zM56,92H60V96H56zM60,92H64V96H60zM64,92H68V96H64zM68,92H72V96H68zM84,92H88V96H84zM92,92H96V96H92zM96,92H100V96H96zM100,92H104V96H100zM104,92H108V96H104zM0,96H4V100H0zM4,96H8V100H4zM8,96H12V100H8zM12,96H16V100H12zM16,96H20V100H16zM20,96H24V100H20zM24,96H28V100H24zM28,96H32V100H28zM32,96H36V100H32zM44,96H48V100H44zM48,96H52V100H48zM52,96H56V100H52zM56,96H60V100H56zM68,96H72V100H68zM76,96H80V100H76zM80,96H84V100H80zM84,96H88V100H84zM88,96H92V100H88zM92,96H96V100H92zM96,96H100V100H96zM100,96H104V100H100zM104,96H108V100H104zM108,96H112V100H108zM112,96H116V100H112zM32,100H36V104H32zM36,100H40V104H36zM40,100H44V104H40zM60,100H64V104H60zM64,100H68V104H64zM72,100H76V104H72zM88,100H92V104H88zM92,100H96V104H92zM96,100H100V104H96zM112,100H116V104H112zM120,100H124V104H120zM124,100H128V104H124zM0,104H4V108H0zM4,104H8V108H4zM8,104H12V108H8zM12,104H16V108H12zM16,104H20V108H16zM20,104H24V108H20zM24,104H28V108H24zM32,104H36V108H32zM48,104H52V108H48zM52,104H56V108H52zM56,104H60V108H56zM60,104H64V108H60zM64,104H68V108H64zM68,104H72V108H68zM80,104H84V108H80zM84,104H88V108H84zM88,104H92V108H88zM96,104H100V108H96zM104,104H108V108H104zM112,104H116V108H112zM116,104H120V108H116zM124,104H128V108H124zM0,108H4V112H0zM24,108H28V112H24zM36,108H40V112H36zM40,108H44V112H40zM44,108H48V112H44zM56,108H60V112H56zM60,108H64V112H60zM68,108H72V112H68zM72,108H76V112H72zM84,108H88V112H84zM96,108H100V112H96zM112,108H116V112H112zM128,108H132V112H128zM0,112H4V116H0zM8,112H12V116H8zM12,112H16V116H12zM16,112H20V116H16zM24,112H28V116H24zM32,112H36V116H32zM36,112H40V116H36zM40,112H44V116H40zM52,112H56V116H52zM56,112H60V116H56zM72,112H76V116H72zM80,112H84V116H80zM96,112H100V116H96zM100,112H104V116H100zM104,112H108V116H104zM108,112H112V116H108zM112,112H116V116H112zM116,112H120V116H116zM0,116H4V120H0zM8,116H12V120H8zM12,116H16V120H12zM16,116H20V120H16zM24,116H28V120H24zM40,116H44V120H40zM48,116H52V120H48zM56,116H60V120H56zM64,116H68V120H64zM76,116H80V120H76zM88,116H92V120H88zM92,116H96V120H92zM104,116H108V120H104zM108,116H112V120H108zM112,116H116V120H112zM124,116H128V120H124zM0,120H4V124H0zM8,120H12V124H8zM12,120H16V124H12zM16,120H20V124H16zM24,120H28V124H24zM44,120H48V124H44zM52,120H56V124H52zM56,120H60V124H56zM64,120H68V124H64zM68,120H72V124H68zM72,120H76V124H72zM76,120H80V124H76zM84,120H88V124H84zM100,120H104V124H100zM104,120H108V124H104zM108,120H112V124H108zM112,120H116V124H112zM120,120H124V124H120zM0,124H4V128H0zM24,124H28V128H24zM36,124H40V128H36zM44,124H48V128H44zM52,124H56V128H52zM68,124H72V128H68zM76,124H80V128H76zM80,124H84V128H80zM84,124H88V128H84zM88,124H92V128H88zM96,124H100V128H96zM116,124H120V128H116zM0,128H4V132H0zM4,128H8V132H4zM8,128H12V132H8zM12,128H16V132H12zM16,128H20V132H16zM20,128H24V132H20zM24,128H28V132H24zM32,128H36V132H32zM36,128H40V132H36zM44,128H48V132H44zM48,128H52V132H48zM56,128H60V132H56zM60,128H64V132H60zM64,128H68V132H64zM68,128H72V132H68zM80,128H84V132H80zM84,128H88V132H84zM88,128H92V132H88zM96,128H100V132H96zM128,128H132V132H128z" id="qr-path" fill="#0A4D1C" fill-opacity="1" fill-rule="nonzero" stroke="none" /></svg>